<svg width="141" height="187" viewBox="0 0 141 187" fill="none" xmlns="http://www.w3.org/2000/svg">
<path d="M4.224 102.944C4.224 94.0693 6.144 86.176 9.984 79.264C13.824 72.2667 19.1573 66.848 25.984 63.008C32.896 59.0827 40.704 57.12 49.408 57.12C60.0747 57.12 69.2053 59.936 76.8 65.568C84.3947 71.2 89.472 78.88 92.032 88.608H67.968C66.176 84.8533 63.616 81.9947 60.288 80.032C57.0453 78.0693 53.3333 77.088 49.152 77.088C42.4107 77.088 36.9493 79.4347 32.768 84.128C28.5867 88.8213 26.496 95.0933 26.496 102.944C26.496 110.795 28.5867 117.067 32.768 121.76C36.9493 126.453 42.4107 128.8 49.152 128.8C53.3333 128.8 57.0453 127.819 60.288 125.856C63.616 123.893 66.176 121.035 67.968 117.28H92.032C89.472 127.008 84.3947 134.688 76.8 140.32C69.2053 145.867 60.0747 148.64 49.408 148.64C40.704 148.64 32.896 146.72 25.984 142.88C19.1573 138.955 13.824 133.536 9.984 126.624C6.144 119.712 4.224 111.819 4.224 102.944Z" fill="url(#paint0_linear_204_10)"/>
<path d="M140.744 129.44V148H129.608C121.672 148 115.485 146.08 111.048 142.24C106.611 138.315 104.392 131.957 104.392 123.168V94.752H95.688V76.576H104.392V59.168H126.28V76.576H140.616V94.752H126.28V123.424C126.28 125.557 126.792 127.093 127.816 128.032C128.84 128.971 130.547 129.44 132.936 129.44H140.744Z" fill="url(#paint1_linear_204_10)"/>
<path d="M95.264 104.136C95.264 106.184 95.136 108.317 94.88 110.536H45.344C45.6853 114.973 47.0933 118.387 49.568 120.776C52.128 123.08 55.2427 124.232 58.912 124.232C64.3733 124.232 68.1707 121.928 70.304 117.32H93.6C92.4053 122.013 90.2293 126.237 87.072 129.992C84 133.747 80.1173 136.691 75.424 138.824C70.7307 140.957 65.4827 142.024 59.68 142.024C52.6827 142.024 46.4533 140.531 40.992 137.544C35.5307 134.557 31.264 130.291 28.192 124.744C25.12 119.197 23.584 112.712 23.584 105.288C23.584 97.864 25.0773 91.3787 28.064 85.832C31.136 80.2853 35.4027 76.0187 40.864 73.032C46.3253 70.0453 52.5973 68.552 59.68 68.552C66.592 68.552 72.736 70.0027 78.112 72.904C83.488 75.8053 87.6693 79.944 90.656 85.32C93.728 90.696 95.264 96.968 95.264 104.136ZM72.864 98.376C72.864 94.6213 71.584 91.6347 69.024 89.416C66.464 87.1973 63.264 86.088 59.424 86.088C55.7547 86.088 52.64 87.1547 50.08 89.288C47.6053 91.4213 46.0693 94.4507 45.472 98.376H72.864Z" fill="url(#paint2_linear_204_10)"/>
<path d="M131.081 11L115.581 28L131.081 37L107 58.1176L123.081 37L107 28L131.081 11Z" fill="#8C96F1"/>
<defs>
<linearGradient id="paint0_linear_204_10" x1="49.5" y1="7" x2="49.5" y2="187" gradientUnits="userSpaceOnUse">
<stop stop-color="#332937" stop-opacity="0.56"/>
<stop offset="1" stop-color="#CD6AEF"/>
</linearGradient>
<linearGradient id="paint1_linear_204_10" x1="115" y1="7" x2="115" y2="164" gradientUnits="userSpaceOnUse">
<stop stop-color="#6A5EEC"/>
<stop offset="1" stop-color="#B3A8E3"/>
</linearGradient>
<linearGradient id="paint2_linear_204_10" x1="69.5" y1="0" x2="69.5" y2="180" gradientUnits="userSpaceOnUse">
<stop stop-color="#54D5A7" stop-opacity="0.56"/>
<stop offset="1" stop-color="#CD6AEF"/>
</linearGradient>
</defs>
</svg>
